<svg width="92" height="92" viewBox="0 0 92 92" fill="none" xmlns="http://www.w3.org/2000/svg">
<path d="M11.5 23H19.1667M19.1667 23H80.5M19.1667 23V76.6667C19.1667 78.7 19.9744 80.65 21.4122 82.0878C22.85 83.5256 24.8 84.3333 26.8333 84.3333H65.1667C67.2 84.3333 69.15 83.5256 70.5878 82.0878C72.0256 80.65 72.8333 78.7 72.8333 76.6667V23M30.6667 23V15.3333C30.6667 13.3 31.4744 11.35 32.9122 9.91219C34.35 8.47441 36.3 7.66667 38.3333 7.66667H53.6667C55.7 7.66667 57.65 8.47441 59.0878 9.91219C60.5256 11.35 61.3333 13.3 61.3333 15.3333V23M38.3333 42.1667V65.1667M53.6667 42.1667V65.1667" stroke="#FF0000" stroke-width="4" stroke-linecap="round" stroke-linejoin="round"/>
</svg>
